<svg width="88" height="80" viewBox="0 0 88 80" fill="none" xmlns="http://www.w3.org/2000/svg">
<path d="M87.0572 8.31028V15.8019H70.3943V8.31028C70.598 5.47542 72.2292 2.93914 74.7236 1.57756C77.218 0.215993 80.2336 0.215964 82.728 1.57756C85.2225 2.93916 86.8535 5.47542 87.0572 8.31028ZM43.0957 64.8003H0.942871V69.7087C0.942871 72.438 2.02713 75.0553 3.95687 76.9856C5.88659 78.9153 8.5043 79.9996 11.2337 79.9996H54.2909C44.7753 79.9996 43.0962 74.23 43.0962 64.801L43.0957 64.8003ZM70.3943 -0.00115011C69.1901 0.411236 68.1549 1.20755 67.4467 2.26556C66.7392 3.32304 66.3982 4.58414 66.4763 5.85485C66.175 10.8929 66.4763 66.6506 66.4763 66.6506C66.4875 69.2053 65.4897 71.6611 63.6995 73.4831C61.9093 75.3057 59.4717 76.3476 56.917 76.3816H56.4003H56.4008C53.8388 76.3587 51.3903 75.3218 49.5905 73.4981C47.7914 71.6744 46.7875 69.2124 46.7987 66.6504V60.0199H12.353L12.3535 7.18842C12.3418 5.27828 13.0957 3.44228 14.4467 2.09128C15.7977 0.740279 17.6331 -0.0135787 19.5438 -0.00186439L70.3943 -0.00115011ZM31.9872 20.3646H46.4972V14.8098H31.9872V20.3646ZM57.8214 42.5817L20.5772 42.5812V48.1353H57.9072L57.8214 42.5817ZM57.8214 28.7173H20.5772V34.4439H57.9072L57.8214 28.7173Z" fill="white"/>
</svg>
