<svg width="10" height="10" viewBox="0 0 10 10" fill="none" xmlns="http://www.w3.org/2000/svg">
<path d="M5.00016 1.44159C5.16103 1.44159 5.32033 1.47327 5.46895 1.53483C5.61757 1.5964 5.75262 1.68663 5.86637 1.80038C5.98012 1.91413 6.07035 2.04917 6.13192 2.1978C6.19348 2.34642 6.22516 2.50572 6.22516 2.66659C6.22516 2.82745 6.19348 2.98675 6.13192 3.13537C6.07035 3.284 5.98012 3.41904 5.86637 3.53279C5.75262 3.64654 5.61757 3.73678 5.46895 3.79834C5.32033 3.8599 5.16103 3.89159 5.00016 3.89159C4.67527 3.89159 4.36369 3.76252 4.13396 3.53279C3.90423 3.30306 3.77516 2.99148 3.77516 2.66659C3.77516 2.3417 3.90423 2.03011 4.13396 1.80038C4.36369 1.57065 4.67527 1.44159 5.00016 1.44159ZM5.00016 6.69159C6.73266 6.69159 8.5585 7.54325 8.5585 7.91659V8.55825H1.44183V7.91659C1.44183 7.54325 3.26766 6.69159 5.00016 6.69159ZM5.00016 0.333252C3.711 0.333252 2.66683 1.37742 2.66683 2.66659C2.66683 3.95575 3.711 4.99992 5.00016 4.99992C6.28933 4.99992 7.3335 3.95575 7.3335 2.66659C7.3335 1.37742 6.28933 0.333252 5.00016 0.333252ZM5.00016 5.58325C3.44266 5.58325 0.333496 6.36492 0.333496 7.91659V9.66659H9.66683V7.91659C9.66683 6.36492 6.55766 5.58325 5.00016 5.58325Z" fill="black"/>
</svg>
