<svg width="100" height="100" viewBox="0 0 100 100" fill="none" xmlns="http://www.w3.org/2000/svg">
<g clip-path="url(#clip0_1543_11178)">
<path d="M92.7597 13.3379C92.7737 10.3904 91.3247 7.62771 88.8909 5.96083C86.4572 4.29452 83.3546 3.94111 80.6074 5.01741C77.8607 6.09368 75.826 8.46007 75.1755 11.335C74.525 14.2098 75.3426 17.2205 77.3595 19.3724C76.1675 20.3627 75.3599 21.7382 75.0772 23.2605C63.5273 18.8945 50.7782 18.8945 39.2288 23.2611C38.9461 21.7382 38.1385 20.3627 36.9466 19.3724C38.537 17.6753 39.3988 15.4234 39.3473 13.0994C39.2964 10.7755 38.3364 8.56438 36.6728 6.9388C35.0097 5.31322 32.7749 4.40332 30.4479 4.40332C28.1208 4.40332 25.8866 5.31325 24.223 6.9388C22.5599 8.56438 21.5998 10.7756 21.5484 13.0994C21.4976 15.4234 22.3593 17.6753 23.9497 19.3724C22.4336 20.6262 21.5534 22.4874 21.5461 24.4529V73.3589C21.5461 73.9484 21.7808 74.5139 22.1983 74.9309C22.6158 75.3479 23.1819 75.5824 23.772 75.5824H90.5331C91.1232 75.5824 91.6893 75.3479 92.1068 74.9309C92.5242 74.5139 92.7589 73.9484 92.7589 73.3589V24.4529C92.7517 22.4874 91.8715 20.6263 90.3553 19.3724C91.8944 17.7384 92.7533 15.5815 92.7589 13.3378L92.7597 13.3379ZM34.8985 71.1371H25.9968V24.4533C25.9973 23.8644 26.2321 23.2994 26.6495 22.8824C27.0664 22.466 27.6319 22.2315 28.222 22.2304H32.6731C33.2627 22.2315 33.8282 22.466 34.2456 22.8824C34.6625 23.2995 34.8972 23.8644 34.8984 24.4533L34.8985 71.1371ZM30.4474 17.7852C29.2672 17.7852 28.135 17.3168 27.3006 16.4828C26.4658 15.6488 25.9969 14.5184 25.9969 13.3389C25.9969 12.1599 26.4657 11.0289 27.3006 10.1954C28.135 9.36145 29.2672 8.89308 30.4474 8.89308C31.6282 8.89308 32.7599 9.36143 33.5948 10.1954C34.4297 11.0289 34.8985 12.1599 34.8985 13.3389C34.8974 14.5178 34.428 15.6483 33.5937 16.4817C32.7593 17.3151 31.6277 17.7841 30.4474 17.7852ZM74.9553 28.0684L74.9559 71.1381H59.3779V24.4915C64.755 24.6528 70.0483 25.8681 74.9559 28.0692L74.9553 28.0684ZM54.9267 24.4907L54.9273 71.1374H39.3493V28.0677C44.257 25.8667 49.5503 24.6514 54.9273 24.49L54.9267 24.4907ZM88.3087 71.1374H79.4069V24.4536C79.4081 23.8646 79.6428 23.2997 80.0597 22.8827C80.4771 22.4663 81.0427 22.2318 81.6322 22.2307H86.0833C86.6734 22.2318 87.2389 22.4663 87.6558 22.8827C88.0733 23.2997 88.308 23.8647 88.3085 24.4536L88.3087 71.1374ZM83.8582 17.7855C82.6774 17.7855 81.5457 17.3171 80.7108 16.4831C79.8759 15.6491 79.407 14.5187 79.407 13.3391C79.407 12.1601 79.8759 11.0292 80.7108 10.1957C81.5457 9.36173 82.6773 8.89337 83.8582 8.89337C85.0384 8.89337 86.1706 9.36172 87.0049 10.1957C87.8398 11.0292 88.3087 12.1601 88.3087 13.3391C88.3076 14.5181 87.8382 15.6485 87.0038 16.482C86.1695 17.3154 85.0379 17.7844 83.8582 17.7855Z" fill="white"/>
<g filter="url(#filter0_d_1543_11178)">
<path fill-rule="evenodd" clip-rule="evenodd" d="M20.4278 71.2125C22.6253 69.1815 24.6293 66.9509 26.7295 64.8201C28.2768 63.2506 31.1347 65.6244 30.269 67.5639C29.9922 68.1846 29.2312 69.3605 28.9543 69.9813C29.6346 69.479 30.7985 68.421 31.4787 67.9183C33.1159 66.7087 35.6416 68.9081 34.6 70.6799C34.1662 71.4185 33.248 72.7125 32.8136 73.4512C33.3858 73.0622 34.4413 72.1181 35.0133 71.7294C36.7521 70.5472 39.5345 72.9727 38.3953 74.7385C37.9948 75.3594 37.1102 76.5355 36.7097 77.1564C37.0298 76.9527 37.8338 76.1934 38.1536 75.9895C40.0853 74.7589 42.1558 76.8652 40.9337 78.6318C38.4941 82.1602 36.2446 85.4157 33.43 88.6465C30.5753 91.9233 25.3161 91.1783 21.0806 96.0211C18.1261 93.4807 15.172 90.9402 12.2177 88.3995C16.0008 84.057 13.9403 80.2858 14.5489 77.1678C15.2693 73.4787 18.1396 73.3272 20.4273 71.2126L20.4278 71.2125Z" fill="white"/>
<path fill-rule="evenodd" clip-rule="evenodd" d="M40.5645 82.7029L42.2878 84.201C42.9738 84.7973 43.047 85.8528 42.45 86.5381L39.0665 90.4218C38.4697 91.1068 37.4158 91.1828 36.727 90.5841L35.4206 89.4484C36.5988 88.0522 38.781 85.3467 40.565 82.7024L40.5645 82.7029Z" fill="white"/>
<path fill-rule="evenodd" clip-rule="evenodd" d="M4.45204 60.3308L7.83565 56.4469C8.43538 55.7585 9.48794 55.687 10.1753 56.2846L22.0186 66.5801C20.7493 67.9124 20.8401 68.1028 18.7318 69.916C17.4592 71.0105 16.6693 71.5363 15.4845 72.1176L4.61468 62.6684C3.92582 62.0695 3.85279 61.0196 4.45254 60.3312L4.45204 60.3308Z" fill="white"/>
<path fill-rule="evenodd" clip-rule="evenodd" d="M5.21835 74.077C6.43639 70.3032 3.78031 68.2049 2.60588 66.6558C4.33005 64.6767 15.5395 52.0948 16.8456 50.5956L24.2494 57.0317C22.4888 59.0526 10.8156 72.4308 8.67619 74.8865C8.07649 75.5749 7.02544 75.6476 6.33666 75.0488L5.21859 74.0769L5.21835 74.077Z" fill="white"/>
</g>
</g>
<defs>
<filter id="filter0_d_1543_11178" x="-1.39404" y="46.5956" width="48.248" height="53.4255" filterUnits="userSpaceOnUse" color-interpolation-filters="sRGB">
<feFlood flood-opacity="0" result="BackgroundImageFix"/>
<feColorMatrix in="SourceAlpha" type="matrix" values="0 0 0 0 0 0 0 0 0 0 0 0 0 0 0 0 0 0 127 0" result="hardAlpha"/>
<feOffset/>
<feGaussianBlur stdDeviation="2"/>
<feComposite in2="hardAlpha" operator="out"/>
<feColorMatrix type="matrix" values="0 0 0 0 0 0 0 0 0 0 0 0 0 0 0 0 0 0 1 0"/>
<feBlend mode="normal" in2="BackgroundImageFix" result="effect1_dropShadow_1543_11178"/>
<feBlend mode="normal" in="SourceGraphic" in2="effect1_dropShadow_1543_11178" result="shape"/>
</filter>
<clipPath id="clip0_1543_11178">
<rect width="100" height="100" fill="white"/>
</clipPath>
</defs>
</svg>
