<svg width="68" height="58" viewBox="0 0 68 58" fill="none" xmlns="http://www.w3.org/2000/svg">
<path d="M17.1998 24.2C25.1524 24.2 31.5998 18.8273 31.5998 12.2C31.5998 5.57271 25.1528 0.199997 17.1998 0.199997C9.24723 0.199997 2.7998 5.57271 2.7998 12.2C2.80036 18.8273 9.24737 24.2 17.1998 24.2ZM17.1998 7.8C19.8459 7.8 22.0001 9.77371 22.0001 12.2001C22.0001 14.6266 19.8467 16.6003 17.1998 16.6003C14.5537 16.6003 12.3995 14.6266 12.3995 12.2001C12.4001 9.77328 14.5535 7.8 17.1998 7.8Z" fill="white"/>
<path d="M67.5998 30.2V56.6C67.5998 57.2624 67.0624 57.7998 66.4 57.7998L60.4 57.8003V53C60.4 51.6747 59.3264 50.5999 57.9999 50.5999C56.6734 50.5999 55.5998 51.6741 55.5998 53V57.8003H50.7995L50.8 48.1999C50.8 46.8746 49.7264 45.7998 48.3999 45.7998C47.0734 45.7998 45.9997 46.874 45.9997 48.1999V57.7998H41.1995V52.9995C41.1995 51.6741 40.1258 50.5993 38.7993 50.5993C37.4728 50.5993 36.3992 51.6735 36.3992 52.9995V57.7998H31.5989L31.5994 48.1999C31.5994 46.8746 30.5258 45.7998 29.1993 45.7998C27.8728 45.7998 26.7992 46.874 26.7992 48.1999V57.7998H21.9989V52.9995C21.9989 51.6741 20.9252 50.5993 19.5987 50.5993C18.2723 50.5993 17.1986 51.6735 17.1986 52.9995V57.7998H14.7984C6.84587 57.7998 0.398438 52.427 0.398438 45.7998L0.399554 19.6869C0.399554 19.4765 0.693082 19.4324 0.748325 19.6356C2.18975 24.996 7.93361 29 14.7996 29H66.3996C67.062 29 67.5994 29.5368 67.5994 30.1998L67.5998 30.2Z" fill="white"/>
</svg>
