<svg width="56" height="56" viewBox="0 0 56 56" fill="none" xmlns="http://www.w3.org/2000/svg">
<path d="M18.676 44.3333L9.34265 35" stroke="white" stroke-linecap="round" stroke-linejoin="round"/>
<path d="M9.34265 44.3333L18.676 35" stroke="white" stroke-linecap="round" stroke-linejoin="round"/>
<path d="M14.0093 10.5V22.1667" stroke="white" stroke-linecap="round" stroke-linejoin="round"/>
<path d="M19.8427 16.3333H8.17603" stroke="white" stroke-linecap="round" stroke-linejoin="round"/>
<path d="M36.176 16.3333H47.8427" stroke="white" stroke-linecap="round" stroke-linejoin="round"/>
<path d="M36.176 42H47.8427" stroke="black" stroke-linecap="round" stroke-linejoin="round"/>
<path d="M36.176 42H47.8427" stroke="white" stroke-linecap="round" stroke-linejoin="round"/>
<path d="M36.176 37.3333H47.8427" stroke="white" stroke-linecap="round" stroke-linejoin="round"/>
<path d="M28.0093 2.33331V53.6666" stroke="white" stroke-linecap="round" stroke-linejoin="round"/>
<path d="M2.34265 28H53.676" stroke="white" stroke-linecap="round" stroke-linejoin="round"/>
<path d="M46.676 2.33331H9.34265C5.47666 2.33331 2.34265 5.46732 2.34265 9.33331V46.6666C2.34265 50.5326 5.47666 53.6666 9.34265 53.6666H46.676C50.542 53.6666 53.676 50.5326 53.676 46.6666V9.33331C53.676 5.46732 50.542 2.33331 46.676 2.33331Z" stroke="white" stroke-linecap="round" stroke-linejoin="round"/>
</svg>
