<svg width="58" height="58" viewBox="0 0 58 58" fill="none" xmlns="http://www.w3.org/2000/svg">
<line x1="56.3121" y1="37.0973" x2="56.3121" y2="56.3969" stroke="white" stroke-width="1.4"/>
<line x1="57" y1="56.4044" x2="37.1951" y2="56.4044" stroke="white" stroke-width="1.4"/>
<line x1="56.3" y1="20.3889" x2="56.3" y2="1.00001" stroke="white" stroke-width="1.4"/>
<line x1="57" y1="1.7" x2="37.1951" y2="1.7" stroke="white" stroke-width="1.4"/>
<line y1="-0.7" x2="19.2996" y2="-0.7" transform="matrix(0 1 1 0 2.38791 37.7004)" stroke="white" stroke-width="1.4"/>
<line x1="1" y1="56.3" x2="20.8049" y2="56.3" stroke="white" stroke-width="1.4"/>
<line x1="1.68791" y1="20.2996" x2="1.68791" y2="1" stroke="white" stroke-width="1.4"/>
<line x1="1" y1="1.68492" x2="19.439" y2="1.68491" stroke="white" stroke-width="1.4"/>
<g clip-path="url(#clip0_863_9432)">
<path d="M44.1787 33.3511L37.8786 30.651C37.6094 30.5363 37.3103 30.5122 37.0263 30.5822C36.7422 30.6522 36.4886 30.8126 36.3036 31.0392L33.5135 34.448C29.1348 32.3835 25.6109 28.8596 23.5464 24.4809L26.9552 21.6908C27.1823 21.5061 27.343 21.2525 27.413 20.9683C27.4831 20.6841 27.4586 20.3848 27.3433 20.1158L24.6433 13.8157C24.5168 13.5257 24.293 13.2889 24.0107 13.1461C23.7283 13.0034 23.4049 12.9637 23.0964 13.0338L17.2463 14.3838C16.9488 14.4525 16.6834 14.62 16.4934 14.859C16.3034 15.0979 16.1999 15.3942 16.2 15.6995C16.2 30.1279 27.8946 41.8 42.3005 41.8C42.6059 41.8002 42.9023 41.6968 43.1414 41.5068C43.3804 41.3168 43.548 41.0513 43.6167 40.7537L44.9668 34.9036C45.0364 34.5936 44.9959 34.2689 44.852 33.9856C44.7082 33.7022 44.4701 33.4778 44.1787 33.3511Z" fill="white"/>
</g>
<defs>
<clipPath id="clip0_863_9432">
<rect width="32" height="32" fill="white" transform="translate(13 13)"/>
</clipPath>
</defs>
</svg>
