<svg width="50" height="50" viewBox="0 0 50 50" fill="none" xmlns="http://www.w3.org/2000/svg">
<g clip-path="url(#clip0_1203_9852)">
<path d="M25 0.235855C11.3313 0.235855 0.23584 11.3313 0.23584 25C0.23584 29.3379 1.37287 33.4088 3.33412 36.9551L0.286971 47.9704C0.00360208 48.9957 1.00384 49.9965 2.02958 49.7116L13.0463 46.6645C16.593 48.6261 20.6625 49.7642 25 49.7642C38.6687 49.7642 49.7641 38.6687 49.7641 25C49.7641 11.3313 38.6687 0.235855 25 0.235855ZM25 1.65095C37.9039 1.65095 48.349 12.0961 48.349 25C48.349 37.904 37.9039 48.3491 25 48.3491C20.8006 48.3491 16.8683 47.236 13.4637 45.2964C13.3826 45.2504 13.2933 45.2208 13.2008 45.2095C13.1083 45.1981 13.0145 45.2051 12.9247 45.2301L1.65093 48.3477L4.76995 37.0753C4.79471 36.9854 4.80148 36.8916 4.78986 36.7991C4.77824 36.7066 4.74846 36.6173 4.70223 36.5363C2.76328 33.1324 1.65093 29.1994 1.65093 25C1.65093 12.0961 12.096 1.65095 25 1.65095ZM25 5.18869C14.0626 5.18869 5.18867 14.0626 5.18867 25C5.18867 29.1615 6.48787 33.0166 8.6808 36.2047L6.89259 42.6721C6.87591 42.7324 6.87553 42.7961 6.89148 42.8566C6.90744 42.9171 6.93916 42.9723 6.98342 43.0166C7.02767 43.0608 7.08287 43.0926 7.14339 43.1085C7.20391 43.1245 7.26757 43.1241 7.32789 43.1074L13.7953 41.3192C16.9837 43.5128 20.8386 44.8113 25 44.8113C35.9374 44.8113 44.8113 35.9374 44.8113 25C44.8113 19.5521 42.61 14.6143 39.0487 11.0329C38.9825 10.9662 38.8926 10.9285 38.7986 10.9281C38.7047 10.9277 38.6144 10.9646 38.5477 11.0308C38.481 11.0969 38.4433 11.1869 38.4429 11.2808C38.4425 11.3748 38.4795 11.465 38.5457 11.5317C41.9806 14.9861 44.1038 19.7427 44.1038 25C44.1038 35.555 35.555 44.1038 25 44.1038C20.9229 44.1038 17.1504 42.8243 14.0482 40.649C14.0055 40.6191 13.9567 40.599 13.9054 40.5902C13.854 40.5813 13.8013 40.5839 13.7511 40.5978L7.74109 42.2603L9.40355 36.2503C9.41744 36.2001 9.42005 36.1474 9.41121 36.096C9.40238 36.0446 9.3823 35.9959 9.35242 35.9532C7.17707 32.851 5.89622 29.0778 5.89622 25C5.89622 14.445 14.445 5.89623 25 5.89623C26.8069 5.89623 28.5525 6.15269 30.2099 6.62174C30.2546 6.63445 30.3014 6.63822 30.3476 6.63283C30.3938 6.62745 30.4385 6.61302 30.4791 6.59037C30.5197 6.56773 30.5554 6.5373 30.5843 6.50083C30.6131 6.46436 30.6345 6.42257 30.6472 6.37783C30.6599 6.3331 30.6637 6.2863 30.6583 6.24011C30.6529 6.19392 30.6385 6.14924 30.6159 6.10863C30.5932 6.06801 30.5628 6.03226 30.5263 6.0034C30.4899 5.97455 30.4481 5.95316 30.4033 5.94045C28.6857 5.45432 26.8738 5.18869 25 5.18869ZM32.4265 6.65906C32.3446 6.65935 32.2653 6.68803 32.2022 6.74022C32.1391 6.7924 32.0961 6.86486 32.0804 6.94524C32.0648 7.02561 32.0775 7.10893 32.1164 7.18098C32.1553 7.25303 32.218 7.30935 32.2938 7.34035C33.0115 7.63744 33.7061 7.97849 34.3778 8.35745C34.4182 8.38316 34.4635 8.40037 34.5109 8.40803C34.5582 8.41569 34.6067 8.41364 34.6532 8.40201C34.6997 8.39038 34.7434 8.36941 34.7816 8.34038C34.8198 8.31134 34.8516 8.27484 34.8753 8.23311C34.8989 8.19137 34.9138 8.14526 34.9191 8.09758C34.9243 8.04991 34.9199 8.00166 34.9059 7.95577C34.8919 7.90988 34.8688 7.86731 34.8379 7.83065C34.8069 7.79398 34.7689 7.76399 34.726 7.74249C34.0307 7.35022 33.3101 6.99527 32.5647 6.6867C32.5209 6.66831 32.4739 6.65891 32.4265 6.65906ZM35.9684 8.57165C35.8921 8.57077 35.8176 8.59457 35.7559 8.63949C35.6943 8.68441 35.6488 8.74805 35.6263 8.82093C35.6038 8.8938 35.6054 8.972 35.6309 9.04387C35.6564 9.11575 35.7045 9.17744 35.768 9.21977C36.2473 9.54741 36.7114 9.8954 37.1568 10.2631C37.2292 10.3229 37.3224 10.3514 37.4158 10.3425C37.5092 10.3335 37.5953 10.2878 37.655 10.2154C37.7147 10.1431 37.7433 10.0499 37.7343 9.95648C37.7254 9.86305 37.6797 9.777 37.6073 9.71726C37.1443 9.33499 36.6617 8.97547 36.166 8.6366C36.1081 8.59563 36.0392 8.573 35.9684 8.57165ZM16.8673 13.6848C16.3999 13.6848 15.6776 13.8632 15.0791 14.5278C14.5786 15.075 12.9703 16.6324 12.9703 19.6202C12.9703 22.6508 15.1106 25.4695 15.3859 25.8457L15.3873 25.8485L15.3887 25.8499C15.3989 25.8634 15.5017 26.018 15.643 26.2272C15.7842 26.4363 15.9775 26.7173 16.2192 27.0508C16.7027 27.7179 17.3804 28.5953 18.2355 29.5355C19.9455 31.4158 22.3612 33.5517 25.3538 34.7481V34.7495C27.7954 35.7235 29.2803 36.1212 30.3094 36.2613C31.3384 36.4015 31.9161 36.2743 32.4085 36.2296H32.4099C33.057 36.1679 33.9115 35.7943 34.726 35.2608C35.5405 34.7273 36.3018 34.0429 36.5888 33.2252C36.8382 32.5175 36.9643 31.8612 37.0089 31.3389C37.0313 31.0778 37.0329 30.85 37.0186 30.6604C37.0043 30.4707 36.995 30.3323 36.8984 30.1657H36.897C36.7717 29.9505 36.5822 29.8269 36.376 29.7124C36.1702 29.598 35.9315 29.4897 35.6505 29.3476H35.6491C35.357 29.1984 34.5112 28.775 33.6661 28.3622C32.8204 27.9493 32.016 27.5603 31.6858 27.4377H31.6844C31.4136 27.3388 31.1415 27.2387 30.8234 27.276C30.5054 27.3134 30.2026 27.525 29.9763 27.8675C29.6302 28.3914 28.5119 29.7321 28.184 30.1104V30.1118H28.1826C28.0475 30.2679 27.9694 30.3074 27.8758 30.319C27.7822 30.3307 27.6217 30.3021 27.3645 30.1739L27.3672 30.1767C27.0329 30.006 26.4639 29.7965 25.6758 29.3697C24.8876 28.9428 23.9018 28.3103 22.8276 27.3396C21.1688 25.841 20.0259 23.9657 19.6989 23.397V23.3956C19.5677 23.1693 19.5819 23.0854 19.616 22.9921C19.6498 22.8996 19.7522 22.7781 19.8924 22.6355L19.8951 22.6328C20.1892 22.3397 20.5016 21.9197 20.7782 21.5936L20.7796 21.5922V21.5908C21.0907 21.2176 21.2088 20.9321 21.3973 20.5543L21.3987 20.553V20.5516C21.6433 20.0486 21.5142 19.5561 21.3517 19.2222C21.3342 19.1853 21.2304 18.9342 21.0988 18.6072C20.9668 18.2793 20.7969 17.8562 20.6165 17.4063C20.2557 16.5065 19.8508 15.5022 19.5897 14.9147C19.3564 14.3869 19.0905 14.0669 18.7896 13.8907C18.4897 13.715 18.1921 13.7057 17.9853 13.6986H17.9826C17.6359 13.6841 17.2499 13.6848 16.8673 13.6848ZM16.8673 14.3923C17.2508 14.3923 17.6301 14.3925 17.9549 14.4061H17.9563H17.9577C18.1626 14.4132 18.2949 14.4214 18.4317 14.5015C18.5684 14.5816 18.7462 14.7557 18.943 15.2008V15.2021C19.1928 15.7644 19.5999 16.7719 19.9601 17.6703C20.1402 18.1195 20.3097 18.5415 20.4424 18.8712C20.5751 19.2008 20.6616 19.4179 20.7146 19.529V19.5303L20.716 19.5317C20.8379 19.7822 20.8962 19.9681 20.763 20.242C20.5651 20.6388 20.4921 20.8309 20.2365 21.1375L20.2392 21.1361C19.9407 21.4883 19.6195 21.9091 19.3935 22.1339L19.3921 22.1353L19.3907 22.1367C19.2449 22.2847 19.0545 22.4675 18.9513 22.7502C18.8481 23.033 18.8819 23.3975 19.0867 23.7507C19.4325 24.3519 20.5986 26.2792 22.3536 27.8647C23.4738 28.8768 24.5104 29.543 25.3386 29.9915C26.167 30.4402 26.8086 30.6853 27.0466 30.8069H27.048L27.0494 30.8083C27.3689 30.9674 27.6627 31.0584 27.9628 31.0211C28.2626 30.9838 28.5165 30.8066 28.7174 30.5747C29.0616 30.1775 30.1483 28.8922 30.5678 28.2572C30.7243 28.0203 30.8043 27.9899 30.905 27.9781C31.0056 27.9662 31.187 28.0096 31.4412 28.1024C31.6419 28.1771 32.514 28.5871 33.3551 28.9979C34.197 29.4091 35.0478 29.8344 35.3285 29.9777H35.3299C35.6257 30.1274 35.8668 30.2384 36.0319 30.3301C36.197 30.4218 36.2693 30.4918 36.2862 30.5208C36.2604 30.4762 36.3033 30.5745 36.3138 30.7143C36.3244 30.854 36.3225 31.0481 36.3028 31.2781C36.2634 31.7381 36.1496 32.3424 35.9214 32.9903C35.7308 33.5332 35.0809 34.1835 34.3391 34.6694C33.5973 35.1553 32.7514 35.4859 32.3436 35.5248C31.7866 35.5755 31.345 35.6874 30.4047 35.5593C29.4638 35.4312 28.0277 35.0536 25.6163 34.0917C22.7723 32.9547 20.4251 30.8919 18.7592 29.0601C17.9263 28.1442 17.2632 27.2873 16.7913 26.6362C16.5554 26.3107 16.3674 26.037 16.2289 25.8319C16.0904 25.6268 16.0159 25.5066 15.9539 25.4243C15.6585 25.0206 13.6779 22.3079 13.6779 19.6202C13.6779 16.8768 15.0421 15.6162 15.6015 15.0045V15.0031H15.6029C16.054 14.501 16.5783 14.3923 16.8673 14.3923Z" fill="white"/>
</g>
<defs>
<clipPath id="clip0_1203_9852">
<rect width="50" height="50" fill="white"/>
</clipPath>
</defs>
</svg>
