<svg width="58" height="58" viewBox="0 0 58 58" fill="none" xmlns="http://www.w3.org/2000/svg">
<path d="M33.2561 12.8708C26.9878 12.8708 21.9025 18.0271 21.9025 24.3829C21.9025 26.4541 22.4512 28.3893 23.3903 30.071L13.3903 40.2106L14.811 43.0856L17.6464 44.5261L27.6464 34.3865C29.2988 35.3448 31.2134 35.8951 33.2561 35.8951C39.5244 35.8951 44.6098 30.7387 44.6098 24.3829C44.6098 18.0271 39.5244 12.8708 33.2561 12.8708ZM33.2561 32.2968C28.9451 32.2968 25.4512 28.7541 25.4512 24.3829C25.4512 20.0118 28.9451 16.4691 33.2561 16.4691C37.5671 16.4691 41.061 20.0118 41.061 24.3829C41.061 28.7541 37.5671 32.2968 33.2561 32.2968Z" fill="white" stroke="white" stroke-width="0.0875"/>
<line x1="56.3121" y1="37.0973" x2="56.3121" y2="56.3969" stroke="white" stroke-width="1.4"/>
<line x1="57" y1="56.4044" x2="37.1951" y2="56.4044" stroke="white" stroke-width="1.4"/>
<line x1="56.3" y1="20.3889" x2="56.3" y2="1.00001" stroke="white" stroke-width="1.4"/>
<line x1="57" y1="1.7" x2="37.1951" y2="1.7" stroke="white" stroke-width="1.4"/>
<line y1="-0.7" x2="19.2996" y2="-0.7" transform="matrix(0 1 1 0 2.38794 37.7004)" stroke="white" stroke-width="1.4"/>
<line x1="1" y1="56.3" x2="20.8049" y2="56.3" stroke="white" stroke-width="1.4"/>
<line x1="1.68794" y1="20.2996" x2="1.68794" y2="1" stroke="white" stroke-width="1.4"/>
<line x1="1" y1="1.68492" x2="19.439" y2="1.68491" stroke="white" stroke-width="1.4"/>
</svg>
