<svg width="50" height="50" viewBox="0 0 50 50" fill="none" xmlns="http://www.w3.org/2000/svg">
<g clip-path="url(#clip0_1203_9850)">
<path d="M25 0.454544C11.452 0.454544 0.454559 11.452 0.454559 25C0.454559 38.548 11.452 49.5455 25 49.5455C38.548 49.5455 49.5455 38.548 49.5455 25C49.5455 11.452 38.548 0.454544 25 0.454544ZM25 1.81818C37.8111 1.81818 48.1818 12.189 48.1818 25C48.1818 37.811 37.8111 48.1818 25 48.1818C12.189 48.1818 1.8182 37.811 1.8182 25C1.8182 12.189 12.189 1.81818 25 1.81818ZM25 3.86364C13.3306 3.86364 3.86365 13.3305 3.86365 25C3.86365 36.6695 13.3306 46.1364 25 46.1364C36.6695 46.1364 46.1364 36.6695 46.1364 25C46.1364 18.7984 43.463 13.216 39.2063 9.35014C39.1735 9.31853 39.1346 9.29383 39.092 9.27751C39.0494 9.26119 39.004 9.25357 38.9584 9.25512C38.9128 9.25667 38.868 9.26734 38.8267 9.28651C38.7853 9.30568 38.7482 9.33296 38.7175 9.36672C38.6869 9.40049 38.6633 9.44006 38.6482 9.4831C38.6331 9.52614 38.6269 9.57176 38.6297 9.61727C38.6326 9.66279 38.6445 9.70726 38.6649 9.74807C38.6853 9.78888 38.7136 9.82519 38.7482 9.85485C42.8684 13.5967 45.4546 18.9943 45.4546 25C45.4546 36.301 36.301 45.4545 25 45.4545C13.699 45.4545 4.54547 36.301 4.54547 25C4.54547 13.699 13.699 4.54545 25 4.54545C27.4755 4.54545 29.8464 4.98587 32.0419 5.79057C32.084 5.80597 32.1287 5.81293 32.1734 5.81105C32.2182 5.80918 32.2621 5.79851 32.3027 5.77965C32.3433 5.76079 32.3799 5.73412 32.4102 5.70115C32.4405 5.66818 32.464 5.62957 32.4794 5.5875C32.4948 5.54544 32.5018 5.50076 32.4999 5.45601C32.498 5.41126 32.4873 5.36732 32.4685 5.3267C32.4496 5.28607 32.4229 5.24956 32.3899 5.21925C32.357 5.18894 32.3184 5.16542 32.2763 5.15003C30.0072 4.31837 27.5563 3.86364 25 3.86364ZM34.1912 6.00497C34.1146 6.00685 34.0409 6.03448 33.9819 6.0834C33.923 6.13232 33.8822 6.19968 33.8662 6.27461C33.8502 6.34954 33.8599 6.42767 33.8937 6.49641C33.9276 6.56515 33.9836 6.62049 34.0527 6.6535C34.5094 6.87947 34.9576 7.12228 35.3951 7.38059C35.4337 7.40445 35.4766 7.42037 35.5215 7.42741C35.5663 7.43445 35.6121 7.43247 35.6561 7.42159C35.7002 7.4107 35.7416 7.39114 35.778 7.36404C35.8144 7.33693 35.845 7.30284 35.8681 7.26375C35.8911 7.22466 35.9061 7.18137 35.9122 7.1364C35.9183 7.09144 35.9154 7.04571 35.9036 7.0019C35.8918 6.95808 35.8713 6.91706 35.8435 6.88125C35.8156 6.84543 35.7809 6.81554 35.7413 6.79332C35.2897 6.52664 34.8284 6.27583 34.3564 6.04226C34.3053 6.01614 34.2485 6.00332 34.1912 6.00497ZM36.9372 7.62163C36.9256 7.62148 36.914 7.62193 36.9025 7.62296C36.832 7.62821 36.7648 7.65527 36.7104 7.7004C36.6559 7.74552 36.6168 7.80647 36.5985 7.8748C36.5802 7.94313 36.5836 8.01546 36.6083 8.08176C36.6329 8.14807 36.6776 8.20506 36.7361 8.24485C36.9629 8.4039 37.1863 8.56818 37.4059 8.73624C37.4415 8.76352 37.4821 8.78353 37.5254 8.79512C37.5687 8.80671 37.6139 8.80965 37.6584 8.80378C37.7028 8.7979 37.7457 8.78333 37.7845 8.76089C37.8234 8.73845 37.8574 8.70859 37.8847 8.673C37.9119 8.63741 37.932 8.59679 37.9435 8.55347C37.9551 8.51015 37.9581 8.46497 37.9522 8.42052C37.9463 8.37606 37.9317 8.3332 37.9093 8.29437C37.8869 8.25555 37.857 8.22153 37.8214 8.19425C37.5937 8.02003 37.3617 7.85101 37.1276 7.68688C37.0721 7.64646 37.0058 7.62371 36.9372 7.62163ZM34.8012 14.0909C34.1882 14.0909 33.5919 14.3726 33.5907 14.3732L11.1932 23.4406C11.1609 23.4513 10.9137 23.5353 10.6419 23.7163C10.3519 23.9094 10 24.244 10 24.7456C10 25.2817 10.3278 25.658 10.6166 25.8656C10.9054 26.0732 11.1932 26.1572 11.1932 26.1572C11.1959 26.1577 11.1985 26.1581 11.2012 26.1586L16.3841 27.5648C16.4377 27.715 17.023 29.3515 17.6678 31.1537C18.0047 32.0952 18.3436 33.0398 18.6013 33.7584C18.7302 34.1177 18.8387 34.4203 18.9169 34.6373C18.956 34.7459 18.9874 34.8332 19.0101 34.8957C19.0328 34.9581 19.0371 34.9741 19.0541 35.0155C19.1914 35.3514 19.3155 35.5458 19.4349 35.6721C19.4947 35.7352 19.5552 35.7806 19.6134 35.8119C19.6277 35.8195 19.641 35.8233 19.6547 35.8292C19.6569 35.8305 19.6591 35.8319 19.6613 35.8332C19.6636 35.8343 19.6657 35.8348 19.668 35.8358C19.6776 35.8396 19.6878 35.8449 19.6973 35.8478C19.7088 35.8514 19.7154 35.8518 19.7292 35.8545C19.839 35.8938 19.9499 35.9116 20.0515 35.9051C20.3818 35.8916 20.6135 35.7093 20.6135 35.7093C20.6208 35.7034 20.6279 35.6972 20.6348 35.6907L24.0119 32.5706L29.1176 36.8905C29.1176 36.8905 29.243 37.0031 29.4358 37.0943C29.6286 37.1855 29.9103 37.2727 30.2681 37.2727C30.9317 37.2727 31.38 36.9759 31.6171 36.6748C31.8542 36.3738 31.9101 36.0556 31.9101 36.0556V36.0609C31.9101 36.0609 32.896 30.9501 33.8863 25.8163C34.3814 23.2494 34.8775 20.677 35.2513 18.7345C35.4381 17.7632 35.5949 16.9489 35.7054 16.3721C35.7606 16.0837 35.8042 15.8545 35.8345 15.6942C35.8497 15.6141 35.8622 15.5512 35.8705 15.5065C35.8788 15.4617 35.8798 15.4647 35.8865 15.4159C35.8996 15.3211 35.9091 15.2187 35.9091 15.1136C35.9091 14.8097 35.7745 14.5312 35.5642 14.3532C35.3539 14.1753 35.0824 14.0909 34.8012 14.0909ZM34.8012 14.7727C34.946 14.7727 35.058 14.8162 35.1247 14.8726C35.1915 14.929 35.2273 14.9915 35.2273 15.1136C35.2273 15.1736 35.2214 15.2498 35.2113 15.3227C35.2164 15.2854 35.2074 15.3392 35.1993 15.3826C35.1912 15.426 35.1798 15.488 35.1647 15.5677C35.1345 15.7272 35.0907 15.956 35.0355 16.2442C34.9252 16.8206 34.7696 17.6341 34.5828 18.6053C34.2091 20.5476 33.7129 23.1203 33.2178 25.6871C32.2275 30.8208 31.2402 35.9317 31.2402 35.9317C31.2398 35.9335 31.2393 35.9353 31.2389 35.9371C31.2389 35.9371 31.213 36.086 31.0818 36.2527C30.9506 36.4193 30.7453 36.5909 30.2681 36.5909C30.0191 36.5909 29.8418 36.5331 29.7275 36.479C29.6131 36.425 29.5823 36.3925 29.5823 36.3925C29.5784 36.3884 29.5744 36.3844 29.5703 36.3805L21.3312 29.4078L31.5053 19.7319L31.4786 19.7545C31.7025 19.5821 31.8182 19.3191 31.8182 19.0581V19.0567C31.8171 18.8745 31.7594 18.6878 31.6411 18.5307C31.4755 18.3081 31.2179 18.1833 30.9579 18.1818H30.9566C30.7687 18.1809 30.58 18.2442 30.4239 18.3643L30.4519 18.3443L16.6451 26.8896L16.8169 26.9869C16.7917 26.9729 16.7648 26.9621 16.737 26.9549L11.3823 25.502L11.3796 25.5007C11.3734 25.4988 11.1973 25.4442 11.0148 25.3129C10.829 25.1795 10.6818 25.0134 10.6818 24.7456C10.6818 24.5758 10.8199 24.4169 11.0201 24.2836C11.2203 24.1502 11.4262 24.0811 11.4262 24.0811C11.4339 24.0787 11.4414 24.0761 11.4489 24.0732L33.8557 15.0018C33.8588 15.0005 33.8619 14.9992 33.865 14.9978C33.865 14.9978 34.4192 14.7727 34.8012 14.7727ZM30.9539 18.8636C31.0059 18.8639 31.055 18.8843 31.0951 18.9382L31.0964 18.9395C31.1224 18.9738 31.1359 19.0154 31.1364 19.0594C31.136 19.1197 31.1103 19.1779 31.0618 19.2152C31.0525 19.2223 31.0437 19.2298 31.0352 19.2378L20.5855 29.1761C20.5315 29.2277 20.496 29.2955 20.4843 29.3692H20.4816L19.6187 34.5748C19.6001 34.5233 19.583 34.478 19.5575 34.407C19.4795 34.1905 19.3707 33.8872 19.2418 33.5281C18.9842 32.8098 18.6465 31.8647 18.3097 30.9233C17.6824 29.1701 17.1432 27.6641 17.0606 27.433L30.8114 18.9236C30.8211 18.9174 30.8304 18.9107 30.8394 18.9036C30.878 18.8739 30.9172 18.8634 30.9539 18.8636ZM21.0569 30.0697L23.4872 32.1271L20.2153 35.15L21.0569 30.0697Z" fill="white"/>
</g>
<defs>
<clipPath id="clip0_1203_9850">
<rect width="50" height="50" fill="white"/>
</clipPath>
</defs>
</svg>
