<svg width="74" height="74" viewBox="0 0 74 74" fill="none" xmlns="http://www.w3.org/2000/svg">
<path d="M13.25 26.6314V27.0003C13.25 28.3792 14.3711 29.5003 15.75 29.5003C17.1289 29.5003 18.25 28.3792 18.25 27.0003V26.6314C17.4576 26.8692 16.6189 27.0003 15.75 27.0003C14.8811 27.0003 14.0424 26.8692 13.25 26.6314Z" fill="white"/>
<path d="M9.71423 12C11.6607 12 13.4905 11.2427 14.8655 9.866L15.7494 8.98096L16.6334 9.866C18.0095 11.2427 19.8382 12 21.7847 12H23.2495C24.1647 12 25.0107 12.2651 25.7495 12.6948V10.75C25.7495 5.23605 21.2635 0.750046 15.7495 0.750046C10.2355 0.750046 5.74951 5.23605 5.74951 10.75V12.6965C6.48835 12.2651 7.33437 12 8.24951 12L9.71423 12Z" fill="white"/>
<path d="M16.1044 37.1586C17.197 36.2501 18.5809 35.7501 19.9984 35.7501C21.5982 35.7501 23.1658 36.4002 24.2969 37.5314L25.0168 38.2501H30.7495V34.47C30.7495 32.8014 29.6759 31.3573 28.0771 30.8784L20.4644 28.595C19.7947 30.5677 17.9459 32.0001 15.7495 32.0001C13.5531 32.0001 11.7044 30.5677 11.0347 28.595L3.42194 30.8784C1.82323 31.3578 0.749512 32.8014 0.749512 34.47V38.2501H14.7969L16.1044 37.1586Z" fill="white"/>
<path d="M7.05134 19.18C7.01897 18.8748 7 18.5645 7 18.2498V14.8485C6.25614 15.2821 5.75 16.0795 5.75 17.0008C5.75 17.9422 6.28013 18.7547 7.05134 19.18Z" fill="white"/>
<path d="M22 18.25V14.5H21.7851C19.5686 14.5 17.4654 13.769 15.75 12.4186C14.0351 13.769 11.9314 14.5 9.71484 14.5H9.5V18.25C9.5 21.6964 12.3036 24.5 15.75 24.5C19.1964 24.5 22 21.6964 22 18.25Z" fill="white"/>
<path d="M24.5001 18.25C24.5001 18.5636 24.4811 18.8739 24.4487 19.1802C25.2199 18.7539 25.7501 17.9425 25.7501 17C25.7501 16.0786 25.2439 15.2812 24.5001 14.8477L24.5001 18.25Z" fill="white"/>
<path d="M40.8373 57.6057C40.0421 56.8105 38.6309 56.8356 37.8646 57.6531L36.8032 58.7854L45.8919 67.8741L46.1682 67.5415C46.7061 66.8998 46.9996 66.0861 46.9996 65.2508C46.9996 64.2943 46.6269 63.396 45.9511 62.7195L40.8373 57.6057Z" fill="white"/>
<path d="M19.9986 38.25C19.1621 38.25 18.3484 38.5452 17.705 39.0798L17.3735 39.356L26.4634 48.4459L27.5956 47.3834C28.0119 46.995 28.2497 46.4437 28.2497 45.875C28.2497 45.3225 28.0348 44.8024 27.6448 44.4124L22.5309 39.2997C21.8646 38.6323 20.9412 38.25 19.9986 38.25Z" fill="white"/>
<path d="M31.3344 62C29.8183 62 28.393 61.4102 27.3204 60.3387L24.913 57.9303C23.8416 56.8589 23.2505 55.4342 23.2505 53.918C23.2505 52.543 23.7818 51.2266 24.6808 50.1982L15.447 40.9643L14.5446 41.7165C12.9269 43.0625 12.0005 45.0424 12.0005 47.1462C12.0005 48.5023 12.3342 49.7338 12.9631 50.8125C17.8431 59.1775 24.7828 66.2825 33.0317 71.3582L34.4016 72.2009C35.5155 72.8867 36.7956 73.2494 38.1054 73.2494C40.2102 73.2494 42.1891 72.3231 43.5339 70.707L44.2862 69.803L35.0523 60.5703C34.0255 61.4693 32.7092 61.9994 31.3342 61.9994L31.3344 62Z" fill="white"/>
<path d="M72 18.25H42C41.3103 18.25 40.75 18.8114 40.75 19.5V37C40.75 37.6886 41.3103 38.25 42 38.25H52V44.5L60.3337 38.25H72C72.6897 38.25 73.25 37.6886 73.25 37V19.5C73.25 18.8114 72.6897 18.25 72 18.25ZM58.25 35.75H55.75V33.25H58.25V35.75ZM60.75 24.7137C60.75 25.7148 60.3599 26.6573 59.6512 27.366L58.25 28.7672V30.7499H55.75V27.7327L57.884 25.5987C58.12 25.3626 58.2501 25.0473 58.2501 24.7136V24.4999C58.2501 23.8113 57.6898 23.2499 57.0001 23.2499C56.3103 23.2499 55.7501 23.8113 55.7501 24.4999V25.7499H53.2501V24.4999C53.2501 22.4323 54.9325 20.7499 57.0001 20.7499C59.0676 20.7499 60.7501 22.4323 60.7501 24.4999L60.75 24.7137Z" fill="white"/>
</svg>
