<svg width="77" height="80" viewBox="0 0 77 80" fill="none" xmlns="http://www.w3.org/2000/svg">
<path d="M45.3599 28.64V25.5999C45.3599 24.64 44.5597 23.8399 43.5999 23.8399H13.6799C12.7201 23.8399 11.9199 24.6401 11.9199 25.5999V28.64C11.9199 29.5998 12.7201 30.4 13.6799 30.4H43.5999C44.5598 30.4 45.3594 29.5998 45.3594 28.64H45.3599Z" fill="white"/>
<path d="M21.68 14.4L21.2001 6.56015C15.9199 9.28001 12.3998 14.5601 12.2402 20.64C12.7201 20.4798 13.2001 20.4799 13.6799 20.4799H43.5999C44.0799 20.4799 44.5598 20.64 45.0397 20.64C44.8795 14.5601 41.3594 9.28001 36.0798 6.56015L35.5993 14.4C35.4392 16.9603 33.3593 18.8799 30.9593 18.8799H26.3193C23.9198 18.8799 21.8395 16.9597 21.6798 14.4H21.68Z" fill="white"/>
<path d="M26.32 15.68H30.96C31.7603 15.68 32.3997 15.0399 32.5599 14.2403L33.2 3.04C33.2 1.92003 32.5599 0.960144 31.6001 0.960144H25.8401C24.8803 0.960144 24.0801 1.91997 24.2402 3.04L24.8803 14.4C24.8803 15.0401 25.5204 15.68 26.32 15.68Z" fill="white"/>
<path d="M28.5598 50.72C36.08 50.72 42.6397 41.6 43.2798 33.6H13.8398C14.6401 41.6 21.0401 50.72 28.5598 50.72Z" fill="white"/>
<path d="M0.000285557 78.3199C0.000285557 79.2797 0.640358 79.9197 1.60014 79.9197H56.4801C57.44 79.9197 58.08 79.2796 58.08 78.3199V71.6C58.08 61.84 50.2401 54 40.48 54H17.6C7.84 54 0 61.8399 0 71.6L0.000285557 78.3199Z" fill="white"/>
<path d="M64.2399 52.32C67.4396 52.32 70.4799 51.0399 72.8799 48.7999C76.2399 45.6001 77.1996 40.7999 75.7599 36.32C75.5997 35.8401 75.1198 35.3602 74.6399 35.3602C74.16 35.2 73.5199 35.3602 73.2002 35.8401L68.3999 40.6404L64.0802 36.4802L68.8805 31.8402C69.2002 31.3603 69.3604 30.8804 69.3604 30.4005C69.2002 29.9206 68.8805 29.4407 68.2404 29.2805C66.9603 28.8006 65.6801 28.6405 64.4006 28.6405C61.2008 28.6405 58.1606 29.9206 55.7606 32.1606C53.5206 34.4006 52.2404 37.4408 52.2404 40.8006C52.2404 41.6008 52.4006 42.4005 52.5602 43.2008L44.8799 50.881C49.5199 51.8409 53.5199 54.4012 56.4 57.9212L61.9999 52.3213C62.4798 52.3202 63.4396 52.3202 64.2399 52.3202L64.2399 52.32Z" fill="white"/>
</svg>
